<svg width="158" height="40" viewBox="0 0 158 40" fill="none" xmlns="http://www.w3.org/2000/svg"><rect x="0.428558" width="157.143" height="40" rx="8" fill="#2F2B5B"/><mask id="mask0" mask-type="alpha" maskUnits="userSpaceOnUse" x="0" y="0" width="158" height="40"><rect width="158" height="40" rx="8" fill="#2F2B5B"/></mask><g mask="url(#mask0)"><rect x="130.565" y="12.1178" width="22.7024" height="22.7024" rx="1.96403" transform="rotate(15 130.565 12.1178)" fill="#FF6955"/><rect x="131.644" y="24.9464" width="24.4865" height="24.4865" rx="2.11838" transform="rotate(-15 131.644 24.9464)" fill="#3EC0AD"/><rect x="127.759" y="-22.6566" width="47.1763" height="47.1763" rx="1.85678" transform="rotate(15 127.759 -22.6566)" fill="#FFE562"/><rect x="111.243" y="10.7267" width="29.2105" height="19.4737" rx="4.28571" fill="white"/><path fill-rule="evenodd" clip-rule="evenodd" d="M52.5825 16.1485L53.3628 16.599C53.5733 16.7205 53.8425 16.6484 53.964 16.4379L54.4223 15.6441C54.5438 15.4336 54.4717 15.1644 54.2612 15.0428L53.4809 14.5924C53.2704 14.4708 53.0012 14.543 52.8797 14.7535L52.4214 15.5472C52.2998 15.7578 52.372 16.0269 52.5825 16.1485ZM73.2389 26.2602C73.0957 26.2602 72.9615 26.1906 72.8791 26.0735L70.4793 22.6665H69.4324V25.8201C69.4324 26.0632 69.2353 26.2602 68.9923 26.2602H68.1382C67.8951 26.2602 67.698 26.0632 67.698 25.8201V15.2474C67.698 15.0043 67.8951 14.8073 68.1382 14.8073H68.9923C69.2353 14.8073 69.4324 15.0043 69.4324 15.2474V21.0884H70.4949L72.6448 18.0109C72.7271 17.8931 72.8618 17.8229 73.0056 17.8229H74.3991C74.5774 17.8229 74.6817 18.0238 74.579 18.1696L71.9637 21.8853L74.8824 25.911C74.9879 26.0565 74.8839 26.2602 74.7042 26.2602H73.2389ZM43.187 15.3229H46.7781C48.9031 15.3229 50.5125 16.8697 50.5125 19.1679C50.5125 21.4504 48.9188 22.9973 46.7781 22.9973H44.5281V25.8201C44.5281 26.0632 44.331 26.2602 44.0879 26.2602H43.187C42.9439 26.2602 42.7468 26.0632 42.7468 25.8201V15.763C42.7468 15.5199 42.9439 15.3229 43.187 15.3229ZM44.5281 21.2942H46.7C47.8719 21.2942 48.6844 20.3717 48.6844 19.1679C48.6844 17.9485 47.8719 17.026 46.7 17.026H44.5281V21.2942ZM53.0026 26.2602C52.7595 26.2602 52.5624 26.0632 52.5624 25.8201V18.263C52.5624 18.0199 52.7595 17.8229 53.0026 17.8229H53.8567C54.0998 17.8229 54.2968 18.0199 54.2968 18.263V25.8201C54.2968 26.0632 54.0998 26.2602 53.8567 26.2602H53.0026ZM61.1343 26.479C63.2125 26.479 64.8844 25.1665 65.3375 23.1978L65.3612 23.0801C65.3887 22.9439 65.2845 22.8166 65.1455 22.8166H64.0452C63.8736 22.8166 63.7177 22.9163 63.6457 23.072L63.5875 23.1978C63.1344 24.229 62.2437 24.8227 61.1343 24.8227C59.6343 24.8227 58.4781 23.604 58.4781 22.0415C58.4781 20.4791 59.6187 19.276 61.1343 19.276C62.2281 19.276 63.1656 19.8697 63.6031 20.8384L63.7068 21.0705C63.7776 21.2291 63.935 21.3312 64.1087 21.3312H65.0165C65.2232 21.3312 65.3791 21.1434 65.341 20.9402L65.3219 20.8384C64.8531 18.901 63.2281 17.6197 61.1343 17.6197C58.6187 17.6197 56.7124 19.526 56.7124 22.0415C56.7124 24.5571 58.6187 26.479 61.1343 26.479ZM79.8805 26.479C81.9431 26.479 83.3025 25.4165 83.3025 23.7759C83.3025 21.7024 81.5757 21.4178 80.1556 21.1837L80.1462 21.1822L80.1269 21.1789C79.1197 21.0085 78.2711 20.8649 78.2711 20.1197C78.2711 19.5103 78.8649 19.0885 79.818 19.0885C80.8337 19.0885 81.4587 19.526 81.4899 20.3228C81.4899 20.4568 81.5938 20.5679 81.7275 20.5769L82.7832 20.6477C82.9712 20.6603 83.1306 20.5112 83.1306 20.3228C83.0993 18.6978 81.8181 17.6197 79.8649 17.6197C77.8961 17.6197 76.5993 18.6666 76.5993 20.1822C76.5993 22.1353 78.2555 22.4478 79.6618 22.6978C80.6931 22.8696 81.5993 23.0415 81.5993 23.854C81.5993 24.5571 80.8806 24.9477 79.943 24.9477C78.9274 24.9477 78.1774 24.479 78.1305 23.5884C78.1305 23.4328 78.0098 23.3039 77.8545 23.2938L76.7946 23.2247C76.6042 23.2122 76.443 23.3633 76.443 23.5541V23.5884C76.4899 25.3384 77.8336 26.479 79.8805 26.479ZM89.5629 17.6197C92.1566 17.6197 93.8754 19.6197 93.8754 22.0728C93.8754 22.2603 93.8598 22.4478 93.8285 22.6353H86.9847C87.2035 24.0103 88.1879 24.854 89.5629 24.854C90.418 24.854 91.1291 24.5217 91.603 23.9504C91.6341 23.9129 91.673 23.8592 91.7104 23.8052C91.7961 23.6815 91.9353 23.604 92.0857 23.604H93.3439C93.5005 23.604 93.6067 23.7628 93.5433 23.906C93.5058 23.9907 93.4664 24.0762 93.4349 24.137C92.6749 25.6009 91.2569 26.479 89.5629 26.479C87.0941 26.479 85.2347 24.5727 85.2347 22.0415C85.2347 19.526 87.0941 17.6197 89.5629 17.6197ZM92.1254 21.229C91.8129 19.9478 90.8598 19.1978 89.5629 19.1978C88.266 19.1978 87.3128 19.9791 87.0316 21.229H92.1254ZM96.0757 25.8201C96.0757 26.0632 96.2728 26.2602 96.5158 26.2602H97.37C97.613 26.2602 97.8101 26.0632 97.8101 25.8201V15.2474C97.8101 15.0043 97.613 14.8073 97.37 14.8073H96.5158C96.2728 14.8073 96.0757 15.0043 96.0757 15.2474V25.8201ZM101.181 26.2602C100.938 26.2602 100.741 26.0632 100.741 25.8201V15.2474C100.741 15.0043 100.938 14.8073 101.181 14.8073H102.035C102.278 14.8073 102.475 15.0043 102.475 15.2474V25.8201C102.475 26.0632 102.278 26.2602 102.035 26.2602H101.181Z" fill="white"/><path d="M24.7543 12.9854C25.4893 11.7123 27.1172 11.2761 28.3902 12.0111L35.6348 16.1938C36.9079 16.9288 37.3441 18.5567 36.609 19.8297L32.4264 27.0743C31.6914 28.3474 30.0635 28.7835 28.7905 28.0485L21.5459 23.8659C20.2728 23.1309 19.8366 21.503 20.5716 20.23L24.7543 12.9854Z" fill="white"/><path d="M127.613 18.2066L127.421 18.8852C126.876 18.3034 126.253 18.0583 125.363 18.0583C123.573 18.0583 122.238 19.4385 122.238 21.2864C122.238 23.1343 123.573 24.5259 125.363 24.5259C126.242 24.5259 126.876 24.2672 127.421 23.7083L127.568 24.3662H128.439C128.592 24.3662 128.715 24.2428 128.715 24.0906V18.4822C128.715 18.33 128.592 18.2066 128.439 18.2066H127.613ZM125.463 23.3054C124.329 23.3054 123.495 22.4385 123.495 21.2864C123.495 20.1343 124.329 19.2674 125.463 19.2674C126.598 19.2674 127.421 20.1229 127.421 21.2864C127.421 22.4499 126.598 23.3054 125.463 23.3054Z" fill="#2F2B5B"/><path d="M135.226 18.2066C135.114 18.2066 135.014 18.2736 134.971 18.3763L133.251 22.5069L131.411 18.3702C131.367 18.2707 131.268 18.2066 131.159 18.2066H130.219C130.118 18.2066 130.051 18.3105 130.093 18.4017L132.617 23.9213L132.484 24.2179C132.039 25.1988 131.794 25.4384 131.005 25.4384H130.758C130.606 25.4384 130.482 25.5618 130.482 25.714V26.3034C130.482 26.4556 130.606 26.579 130.758 26.579H131.094C132.317 26.579 132.918 26.0315 133.596 24.4802L136.269 18.3999C136.309 18.3088 136.243 18.2066 136.143 18.2066H135.226Z" fill="#2F2B5B"/><path fill-rule="evenodd" clip-rule="evenodd" d="M115.99 16.4183H118.558C120.078 16.4183 121.229 17.5247 121.229 19.1684C121.229 20.8009 120.089 21.9072 118.558 21.9072H116.949V23.9262C116.949 24.1 116.808 24.241 116.634 24.241H115.99C115.816 24.241 115.675 24.1 115.675 23.9262V16.7331C115.675 16.5593 115.816 16.4183 115.99 16.4183ZM116.949 20.6892H118.502C119.341 20.6892 119.922 20.0293 119.922 19.1684C119.922 18.2962 119.341 17.6364 118.502 17.6364H116.949V20.6892Z" fill="#2F2B5B"/></g></svg>